<?xml version="1.0" encoding="UTF-8"?>
<svg width="799.54" height="267.17" enable-background="new -0.241 -166.414 800 600" viewBox="-0.241 -166.414 800 600" xmlns="http://www.w3.org/2000/svg">
 <path d="m1197.5 50.644-70.436-1.5076-0.0067 0.41258-23.494-0.50178c-4.5227 5.5976-10.279 8.9183-16.501 8.7845-6.2109-0.13381-11.824-3.6953-16.099-9.4803l-17.462-0.37243c-4.5762 11.693-12.982 19.494-22.466 19.288-9.4692-0.20071-17.544-8.3518-21.606-20.232l-16.733-0.35682c-4.8104 8.6975-12.032 14.199-20.002 14.03s-14.942-5.9745-19.378-14.871l-25.131-0.53747c-4.5182 5.5976-10.279 8.9205-16.49 8.789-6.2243-0.13381-11.833-3.6998-16.108-9.4848l-21.182-0.45271c-4.7435 10.218-12.591 16.846-21.342 16.659s-16.3-7.1431-20.615-17.553l-21.175-0.45494c-4.5182 5.5976-10.274 8.9205-16.494 8.7867s-11.826-3.6998-16.104-9.4848l-23.144-0.49286c-4.8015 9.4558-12.321 15.526-20.678 15.343s-15.62-6.5633-20.004-16.215l-16.96-0.36351c-4.4357 12.42-13.113 20.821-22.937 20.613-9.826-0.20963-18.138-8.9763-22.04-21.572l-17.382-0.37243c-4.652 6.3715-10.798 10.234-17.482 10.091s-12.658-4.2618-17.036-10.827l-17.886-0.38358c-4.0968 13.86-13.312 23.477-23.82 23.256-10.513-0.22525-19.306-10.227-22.808-24.253l-26.512-10.297 0.01115-0.41035-372.95-7.975c-51.043-1.0928-92.689 64.056-92.689 115.11s41.456 104.36 92.508 103.82l399.7-14.019c3.6507-13.983 12.549-23.891 23.06-24.003 10.515-0.11374 19.627 9.603 23.575 23.506l17.886-0.19179c4.4469-6.5209 10.466-10.58 17.15-10.649 6.6859-0.07136 12.79 3.8559 17.375 10.279l17.382-0.18733c4.0388-12.553 12.442-21.233 22.268-21.338s18.416 8.3898 22.721 20.856l16.958-0.17842c4.4915-9.6096 11.815-15.912 20.176-16.003s15.818 6.0593 20.513 15.564l23.149-0.24978c4.3376-5.7359 9.9888-9.2439 16.209-9.3086 6.2176-0.06913 11.94 3.3162 16.4 8.9607l21.18-0.22747c4.4201-10.361 12.049-17.239 20.8-17.335 8.7488-0.09144 16.525 6.619 21.166 16.884l21.184-0.22747c4.3376-5.7359 9.9843-9.2461 16.202-9.313s11.938 3.3207 16.4 8.9651l25.131-0.27208c4.5339-8.8469 11.57-14.574 19.538-14.659s15.129 5.4884 19.848 14.239l16.733-0.18064c4.1971-11.833 12.355-19.902 21.831-20.004s17.808 7.7899 22.254 19.534l17.466-0.18733c4.3376-5.7359 9.9843-9.2461 16.204-9.313s11.936 3.3184 16.398 8.9607l93.782-1.0013c47.346-18.37 94.098-60.952 92.446-82.716 1.6503-16.001-48.264-68.369-92.45-82.716z" fill="#e6e6e6" stroke="#000" stroke-width="2.2301"/>
 <path d="m17.069-163.44h-402.87c-58.041 0-105.09 47.054-105.09 105.09v383.41c0 58.039 47.054 105.09 105.09 105.09h402.87c58.041 0 105.1-47.056 105.1-105.09v-383.41c0-58.041-47.054-105.09-105.1-105.09zm-332.8 416.01c0 21.496-17.424 38.923-38.925 38.923s-38.922-17.426-38.922-38.923v-238.42c0-21.498 17.424-38.925 38.922-38.925s38.925 17.426 38.925 38.925v238.42z" stroke="#000" stroke-width="2.2301"/>
</svg>
